<svg width="256" height="69" viewBox="0 0 256 69" fill="none" xmlns="http://www.w3.org/2000/svg">
<g clip-path="url(#clip0_882_5969)">
<path d="M22.0382 26.904C21.9425 26.5763 22.0765 26.3836 22.3639 26.2873L25.1797 25.5742C25.467 25.4778 25.6394 25.5742 25.7927 25.9018C27.2485 30.1802 29.777 32.1267 34.221 32.1267C38.6651 32.1267 41.615 30.1416 41.615 26.5763C41.615 23.011 38.9524 21.1995 34.5467 19.6577L31.9799 18.7712C26.2333 16.8247 22.9194 13.7605 22.9194 9.19304C22.9194 3.81617 27.555 0.0966797 33.6847 0.0966797C39.393 0.0966797 43.4156 2.8333 44.9672 8.38362C45.063 8.71124 44.9289 8.9425 44.6415 9.00032L41.6916 9.75193C41.366 9.84829 41.1744 9.71338 41.0786 9.4243C39.8527 5.60846 37.4774 3.95107 33.6847 3.95107C29.7004 3.95107 26.942 6.03244 26.942 9.07741C26.942 11.814 29.1832 13.7798 33.972 15.3408L36.2706 16.0924C42.6302 18.2123 45.6376 21.0453 45.6376 26.5571C45.6376 32.0688 40.9637 35.9811 34.221 35.9811C28.0147 36.0003 23.8005 32.9361 22.0382 26.904Z" fill="#4C5C4A"/>
<path d="M51.8058 35.3255C51.4801 35.3255 51.2886 35.1328 51.2886 34.8051V0.462527C51.2886 0.173448 51.4801 0 51.8058 0H54.5641C54.8515 0 55.0239 0.192719 55.0239 0.462527V22.2784L65.9424 11.7752C66.134 11.5824 66.3255 11.5439 66.5554 11.5439H70.1566C70.578 11.5439 70.7121 11.833 70.3864 12.1606L61.824 20.2163L71.5549 34.7281C71.7465 35.0557 71.5932 35.3448 71.2293 35.3448H67.8963C67.6089 35.3448 67.4365 35.2099 67.2833 35.0171L59.0848 22.9144L55.0047 26.7302V34.8244C55.0047 35.152 54.8132 35.3448 54.545 35.3448H51.7866L51.8058 35.3255Z" fill="#4C5C4A"/>
<path d="M76.248 3.77716C76.248 2.37031 77.3207 1.36816 78.7382 1.36816C80.1557 1.36816 81.2284 2.35103 81.2284 3.77716C81.2284 5.20328 80.1557 6.18615 78.7382 6.18615C77.3207 6.18615 76.248 5.20328 76.248 3.77716ZM77.3782 35.3446C77.0526 35.3446 76.861 35.1519 76.861 34.8243V12.0063C76.861 11.7172 77.0526 11.5438 77.3782 11.5438H80.1366C80.4239 11.5438 80.5963 11.7365 80.5963 12.0063V34.805C80.5963 35.1326 80.4048 35.3253 80.1366 35.3253H77.3782V35.3446Z" fill="#4C5C4A"/>
<path d="M88.4115 35.3259C88.0858 35.3259 87.8943 35.1332 87.8943 34.8055V12.0068C87.8943 11.7177 88.0858 11.5443 88.4115 11.5443H90.8059C91.1315 11.5443 91.3231 11.6792 91.3231 12.0068L91.5146 15.919C93.2003 12.6621 96.7057 11.0625 99.9813 11.0625C105.326 11.0625 108.448 14.358 108.448 19.8698V34.8055C108.448 35.1332 108.256 35.3259 107.988 35.3259H105.23C104.904 35.3259 104.713 35.1332 104.713 34.8055V21.4308C104.713 16.8634 102.931 14.5507 99.0044 14.5507C95.633 14.5507 91.6487 17.0946 91.6487 22.7413V34.8055C91.6487 35.1332 91.4572 35.3259 91.189 35.3259H88.4306H88.4115Z" fill="#4C5C4A"/>
<path d="M113.448 26.8461C113.314 26.4607 113.486 26.1909 113.869 26.0945L118.735 24.9189C119.118 24.8226 119.347 24.9575 119.482 25.3429C120.708 28.3494 122.661 29.7755 126.186 29.7755C129.519 29.7755 131.76 28.6963 131.76 26.0945C131.76 23.4928 129.653 22.2401 126.148 20.9682L123.102 19.889C117.624 18.0003 114.29 14.7626 114.29 9.80974C114.29 4.14379 119.309 0.0966797 125.822 0.0966797C131.588 0.0966797 135.898 2.77548 137.622 8.53779C137.756 8.92323 137.583 9.19304 137.2 9.2894L132.047 10.5999C131.664 10.6963 131.435 10.5613 131.3 10.1759C130.17 7.34293 128.389 6.32152 125.822 6.32152C122.834 6.32152 120.861 7.59347 120.861 9.61702C120.861 11.7755 122.642 13.2016 126.665 14.5699L129.098 15.3793C135.323 17.4607 138.33 20.4286 138.33 26.1138C138.33 31.799 133.369 36.0003 126.205 36.0003C119.788 36.0003 115.287 32.8397 113.467 26.8654L113.448 26.8461Z" fill="#4C5C4A"/>
<path d="M149.172 35.325C148.847 35.325 148.617 35.1323 148.464 34.8625L138.12 11.6398C137.928 11.2158 138.12 10.9268 138.579 10.9268H144.383C144.709 10.9268 144.939 11.0617 145.092 11.3893L150.896 26.2287L156.7 11.3893C156.834 11.0617 157.083 10.9268 157.409 10.9268H162.849C163.309 10.9268 163.5 11.2158 163.309 11.6398L152.965 34.8625C152.831 35.1516 152.582 35.325 152.256 35.325H149.172Z" fill="#4C5C4A"/>
<path d="M162.6 23.1263C162.6 15.6295 167.006 10.4453 173.94 10.4453C177.311 10.4453 180.127 11.8522 181.851 14.2612L181.985 11.5245C181.985 11.1006 182.273 10.9078 182.637 10.9078H187.042C187.425 10.9078 187.655 11.1391 187.655 11.5245V34.7087C187.655 35.0941 187.425 35.3254 187.042 35.3254H182.637C182.253 35.3254 181.985 35.1327 181.985 34.7087L181.851 31.9721C180.127 34.3811 177.311 35.7879 173.94 35.7879C167.006 35.7879 162.6 30.6038 162.6 23.107V23.1263ZM181.985 23.1263C181.985 18.925 179.323 16.0149 175.434 16.0149C171.546 16.0149 168.883 18.9442 168.883 23.1263C168.883 27.3083 171.546 30.2376 175.434 30.2376C179.323 30.2376 181.985 27.3083 181.985 23.1263Z" fill="#4C5C4A"/>
<path d="M192.291 35.3255C191.908 35.3255 191.678 35.0943 191.678 34.7088V11.5439C191.678 11.1585 191.908 10.9272 192.291 10.9272H196.697C197.08 10.9272 197.348 11.12 197.348 11.5439L197.482 14.6082C199.129 11.9679 201.984 10.5996 204.876 10.5996C205.585 10.5996 206.044 10.6382 206.523 10.7345C206.906 10.8309 207.041 11.0621 207.041 11.3898V16.2463C207.041 16.6703 206.811 16.8052 206.389 16.7666C205.776 16.7281 205.087 16.5739 204.148 16.5739C200.873 16.5739 197.789 18.8287 197.789 22.7024V34.7088C197.789 35.0943 197.559 35.3255 197.176 35.3255H192.31H192.291Z" fill="#4C5C4A"/>
<path d="M206.945 23.1263C206.945 15.6295 211.351 10.4453 218.285 10.4453C221.656 10.4453 224.472 11.8522 226.196 14.2612L226.33 11.5245C226.33 11.1006 226.617 10.9078 226.981 10.9078H231.387C231.77 10.9078 232 11.1391 232 11.5245V34.7087C232 35.0941 231.77 35.3254 231.387 35.3254H226.981C226.598 35.3254 226.33 35.1327 226.33 34.7087L226.196 31.9721C224.472 34.3811 221.656 35.7879 218.285 35.7879C211.351 35.7879 206.945 30.6038 206.945 23.107V23.1263ZM226.33 23.1263C226.33 18.925 223.667 16.0149 219.779 16.0149C215.89 16.0149 213.228 18.9442 213.228 23.1263C213.228 27.3083 215.89 30.2376 219.779 30.2376C223.667 30.2376 226.33 27.3083 226.33 23.1263Z" fill="#4C5C4A"/>
</g>
<path d="M8.41456 54.032V57.76H12.4786V58.96H8.41456V62.8H12.9586V64H6.95856V52.832H12.9586V54.032H8.41456ZM19.7377 64L17.6577 60.736L15.6577 64H14.1377L16.9697 59.648L14.1377 55.232H15.7857L17.8657 58.48L19.8497 55.232H21.3697L18.5537 59.568L21.3857 64H19.7377ZM24.2739 56.848C24.5619 56.3467 24.9886 55.9307 25.5539 55.6C26.1299 55.2587 26.7966 55.088 27.5539 55.088C28.3326 55.088 29.0366 55.2747 29.6659 55.648C30.3059 56.0213 30.8073 56.5493 31.1699 57.232C31.5326 57.904 31.7139 58.688 31.7139 59.584C31.7139 60.4693 31.5326 61.2587 31.1699 61.952C30.8073 62.6453 30.3059 63.184 29.6659 63.568C29.0366 63.952 28.3326 64.144 27.5539 64.144C26.8073 64.144 26.1459 63.9787 25.5699 63.648C25.0046 63.3067 24.5726 62.8853 24.2739 62.384V68.16H22.8179V55.232H24.2739V56.848ZM30.2259 59.584C30.2259 58.9227 30.0926 58.3467 29.8259 57.856C29.5593 57.3653 29.1966 56.992 28.7379 56.736C28.2899 56.48 27.7939 56.352 27.2499 56.352C26.7166 56.352 26.2206 56.4853 25.7619 56.752C25.3139 57.008 24.9513 57.3867 24.6739 57.888C24.4073 58.3787 24.2739 58.9493 24.2739 59.6C24.2739 60.2613 24.4073 60.8427 24.6739 61.344C24.9513 61.8347 25.3139 62.2133 25.7619 62.48C26.2206 62.736 26.7166 62.864 27.2499 62.864C27.7939 62.864 28.2899 62.736 28.7379 62.48C29.1966 62.2133 29.5593 61.8347 29.8259 61.344C30.0926 60.8427 30.2259 60.256 30.2259 59.584ZM35.0864 52.16V64H33.6304V52.16H35.0864ZM41.3919 64.144C40.5706 64.144 39.8239 63.9573 39.1519 63.584C38.4906 63.2107 37.9679 62.6827 37.5839 62C37.2106 61.3067 37.0239 60.5067 37.0239 59.6C37.0239 58.704 37.2159 57.9147 37.5999 57.232C37.9946 56.5387 38.5279 56.0107 39.1999 55.648C39.8719 55.2747 40.6239 55.088 41.4559 55.088C42.2879 55.088 43.0399 55.2747 43.7119 55.648C44.3839 56.0107 44.9119 56.5333 45.2959 57.216C45.6906 57.8987 45.8879 58.6933 45.8879 59.6C45.8879 60.5067 45.6853 61.3067 45.2799 62C44.8853 62.6827 44.3466 63.2107 43.6639 63.584C42.9813 63.9573 42.2239 64.144 41.3919 64.144ZM41.3919 62.864C41.9146 62.864 42.4053 62.7413 42.8639 62.496C43.3226 62.2507 43.6906 61.8827 43.9679 61.392C44.2559 60.9013 44.3999 60.304 44.3999 59.6C44.3999 58.896 44.2613 58.2987 43.9839 57.808C43.7066 57.3173 43.3439 56.9547 42.8959 56.72C42.4479 56.4747 41.9626 56.352 41.4399 56.352C40.9066 56.352 40.4159 56.4747 39.9679 56.72C39.5306 56.9547 39.1786 57.3173 38.9119 57.808C38.6453 58.2987 38.5119 58.896 38.5119 59.6C38.5119 60.3147 38.6399 60.9173 38.8959 61.408C39.1626 61.8987 39.5146 62.2667 39.9519 62.512C40.3893 62.7467 40.8693 62.864 41.3919 62.864ZM49.2583 56.656C49.5143 56.1547 49.877 55.7653 50.3463 55.488C50.8263 55.2107 51.4076 55.072 52.0903 55.072V56.576H51.7063C50.0743 56.576 49.2583 57.4613 49.2583 59.232V64H47.8023V55.232H49.2583V56.656ZM61.7711 59.28C61.7711 59.5573 61.7551 59.8507 61.7231 60.16H54.7151C54.7684 61.024 55.0617 61.7013 55.5951 62.192C56.1391 62.672 56.7951 62.912 57.5631 62.912C58.1924 62.912 58.7151 62.768 59.1311 62.48C59.5577 62.1813 59.8564 61.7867 60.0271 61.296H61.5951C61.3604 62.1387 60.8911 62.8267 60.1871 63.36C59.4831 63.8827 58.6084 64.144 57.5631 64.144C56.7311 64.144 55.9844 63.9573 55.3231 63.584C54.6724 63.2107 54.1604 62.6827 53.7871 62C53.4137 61.3067 53.2271 60.5067 53.2271 59.6C53.2271 58.6933 53.4084 57.8987 53.7711 57.216C54.1337 56.5333 54.6404 56.0107 55.2911 55.648C55.9524 55.2747 56.7097 55.088 57.5631 55.088C58.3951 55.088 59.1311 55.2693 59.7711 55.632C60.4111 55.9947 60.9017 56.496 61.2431 57.136C61.5951 57.7653 61.7711 58.48 61.7711 59.28ZM60.2671 58.976C60.2671 58.4213 60.1444 57.9467 59.8991 57.552C59.6537 57.1467 59.3177 56.8427 58.8911 56.64C58.4751 56.4267 58.0111 56.32 57.4991 56.32C56.7631 56.32 56.1337 56.5547 55.6111 57.024C55.0991 57.4933 54.8057 58.144 54.7311 58.976H60.2671ZM79.6386 55.232L76.9026 64H75.3986L73.2866 57.04L71.1746 64H69.6706L66.9186 55.232H68.4066L70.4226 62.592L72.5986 55.232H74.0866L76.2146 62.608L78.1986 55.232H79.6386ZM85.4356 55.072C86.0969 55.072 86.6942 55.216 87.2276 55.504C87.7609 55.7813 88.1769 56.2027 88.4756 56.768C88.7849 57.3333 88.9396 58.0213 88.9396 58.832V64H87.4996V59.04C87.4996 58.1653 87.2809 57.4987 86.8436 57.04C86.4062 56.5707 85.8089 56.336 85.0516 56.336C84.2836 56.336 83.6702 56.576 83.2116 57.056C82.7636 57.536 82.5396 58.2347 82.5396 59.152V64H81.0836V52.16H82.5396V56.48C82.8276 56.032 83.2222 55.6853 83.7236 55.44C84.2356 55.1947 84.8062 55.072 85.4356 55.072ZM90.7739 59.584C90.7739 58.688 90.9553 57.904 91.3179 57.232C91.6806 56.5493 92.1766 56.0213 92.8059 55.648C93.4459 55.2747 94.1553 55.088 94.9339 55.088C95.7019 55.088 96.3686 55.2533 96.9339 55.584C97.4993 55.9147 97.9206 56.3307 98.1979 56.832V55.232H99.6699V64H98.1979V62.368C97.9099 62.88 97.4779 63.3067 96.9019 63.648C96.3366 63.9787 95.6753 64.144 94.9179 64.144C94.1393 64.144 93.4353 63.952 92.8059 63.568C92.1766 63.184 91.6806 62.6453 91.3179 61.952C90.9553 61.2587 90.7739 60.4693 90.7739 59.584ZM98.1979 59.6C98.1979 58.9387 98.0646 58.3627 97.7979 57.872C97.5313 57.3813 97.1686 57.008 96.7099 56.752C96.2619 56.4853 95.7659 56.352 95.2219 56.352C94.6779 56.352 94.1819 56.48 93.7339 56.736C93.2859 56.992 92.9286 57.3653 92.6619 57.856C92.3953 58.3467 92.2619 58.9227 92.2619 59.584C92.2619 60.256 92.3953 60.8427 92.6619 61.344C92.9286 61.8347 93.2859 62.2133 93.7339 62.48C94.1819 62.736 94.6779 62.864 95.2219 62.864C95.7659 62.864 96.2619 62.736 96.7099 62.48C97.1686 62.2133 97.5313 61.8347 97.7979 61.344C98.0646 60.8427 98.1979 60.2613 98.1979 59.6ZM103.906 56.432V61.6C103.906 62.0267 103.997 62.3307 104.178 62.512C104.36 62.6827 104.674 62.768 105.122 62.768H106.194V64H104.882C104.072 64 103.464 63.8133 103.058 63.44C102.653 63.0667 102.45 62.4533 102.45 61.6V56.432H101.314V55.232H102.45V53.024H103.906V55.232H106.194V56.432H103.906ZM114 56.432V61.6C114 62.0267 114.091 62.3307 114.272 62.512C114.454 62.6827 114.768 62.768 115.216 62.768H116.288V64H114.976C114.166 64 113.558 63.8133 113.152 63.44C112.747 63.0667 112.544 62.4533 112.544 61.6V56.432H111.408V55.232H112.544V53.024H114V55.232H116.288V56.432H114ZM121.876 64.144C121.055 64.144 120.308 63.9573 119.636 63.584C118.975 63.2107 118.452 62.6827 118.068 62C117.695 61.3067 117.508 60.5067 117.508 59.6C117.508 58.704 117.7 57.9147 118.084 57.232C118.479 56.5387 119.012 56.0107 119.684 55.648C120.356 55.2747 121.108 55.088 121.94 55.088C122.772 55.088 123.524 55.2747 124.196 55.648C124.868 56.0107 125.396 56.5333 125.78 57.216C126.175 57.8987 126.372 58.6933 126.372 59.6C126.372 60.5067 126.17 61.3067 125.764 62C125.37 62.6827 124.831 63.2107 124.148 63.584C123.466 63.9573 122.708 64.144 121.876 64.144ZM121.876 62.864C122.399 62.864 122.89 62.7413 123.348 62.496C123.807 62.2507 124.175 61.8827 124.452 61.392C124.74 60.9013 124.884 60.304 124.884 59.6C124.884 58.896 124.746 58.2987 124.468 57.808C124.191 57.3173 123.828 56.9547 123.38 56.72C122.932 56.4747 122.447 56.352 121.924 56.352C121.391 56.352 120.9 56.4747 120.452 56.72C120.015 56.9547 119.663 57.3173 119.396 57.808C119.13 58.2987 118.996 58.896 118.996 59.6C118.996 60.3147 119.124 60.9173 119.38 61.408C119.647 61.8987 119.999 62.2667 120.436 62.512C120.874 62.7467 121.354 62.864 121.876 62.864ZM136.063 55.232V64H134.607V62.704C134.329 63.152 133.94 63.504 133.439 63.76C132.948 64.0053 132.404 64.128 131.807 64.128C131.124 64.128 130.511 63.9893 129.967 63.712C129.423 63.424 128.991 62.9973 128.671 62.432C128.361 61.8667 128.207 61.1787 128.207 60.368V55.232H129.647V60.176C129.647 61.04 129.865 61.7067 130.303 62.176C130.74 62.6347 131.337 62.864 132.095 62.864C132.873 62.864 133.487 62.624 133.935 62.144C134.383 61.664 134.607 60.9653 134.607 60.048V55.232H136.063ZM137.977 59.6C137.977 58.6933 138.158 57.904 138.521 57.232C138.884 56.5493 139.385 56.0213 140.025 55.648C140.676 55.2747 141.417 55.088 142.249 55.088C143.326 55.088 144.212 55.3493 144.905 55.872C145.609 56.3947 146.073 57.12 146.297 58.048H144.729C144.58 57.5147 144.286 57.0933 143.849 56.784C143.422 56.4747 142.889 56.32 142.249 56.32C141.417 56.32 140.745 56.608 140.233 57.184C139.721 57.7493 139.465 58.5547 139.465 59.6C139.465 60.656 139.721 61.472 140.233 62.048C140.745 62.624 141.417 62.912 142.249 62.912C142.889 62.912 143.422 62.7627 143.849 62.464C144.276 62.1653 144.569 61.7387 144.729 61.184H146.297C146.062 62.08 145.593 62.8 144.889 63.344C144.185 63.8773 143.305 64.144 142.249 64.144C141.417 64.144 140.676 63.9573 140.025 63.584C139.385 63.2107 138.884 62.6827 138.521 62C138.158 61.3173 137.977 60.5173 137.977 59.6ZM152.592 55.072C153.253 55.072 153.85 55.216 154.384 55.504C154.917 55.7813 155.333 56.2027 155.632 56.768C155.941 57.3333 156.096 58.0213 156.096 58.832V64H154.656V59.04C154.656 58.1653 154.437 57.4987 154 57.04C153.562 56.5707 152.965 56.336 152.208 56.336C151.44 56.336 150.826 56.576 150.368 57.056C149.92 57.536 149.696 58.2347 149.696 59.152V64H148.24V52.16H149.696V56.48C149.984 56.032 150.378 55.6853 150.88 55.44C151.392 55.1947 151.962 55.072 152.592 55.072ZM166.474 59.28C166.474 59.5573 166.458 59.8507 166.426 60.16H159.418C159.472 61.024 159.765 61.7013 160.298 62.192C160.842 62.672 161.498 62.912 162.266 62.912C162.896 62.912 163.418 62.768 163.834 62.48C164.261 62.1813 164.56 61.7867 164.73 61.296H166.298C166.064 62.1387 165.594 62.8267 164.89 63.36C164.186 63.8827 163.312 64.144 162.266 64.144C161.434 64.144 160.688 63.9573 160.026 63.584C159.376 63.2107 158.864 62.6827 158.49 62C158.117 61.3067 157.93 60.5067 157.93 59.6C157.93 58.6933 158.112 57.8987 158.474 57.216C158.837 56.5333 159.344 56.0107 159.994 55.648C160.656 55.2747 161.413 55.088 162.266 55.088C163.098 55.088 163.834 55.2693 164.474 55.632C165.114 55.9947 165.605 56.496 165.946 57.136C166.298 57.7653 166.474 58.48 166.474 59.28ZM164.97 58.976C164.97 58.4213 164.848 57.9467 164.602 57.552C164.357 57.1467 164.021 56.8427 163.594 56.64C163.178 56.4267 162.714 56.32 162.202 56.32C161.466 56.32 160.837 56.5547 160.314 57.024C159.802 57.4933 159.509 58.144 159.434 58.976H164.97ZM171.5 64.144C170.828 64.144 170.225 64.032 169.692 63.808C169.159 63.5733 168.737 63.2533 168.428 62.848C168.119 62.432 167.948 61.9573 167.916 61.424H169.42C169.463 61.8613 169.665 62.2187 170.028 62.496C170.401 62.7733 170.887 62.912 171.484 62.912C172.039 62.912 172.476 62.7893 172.796 62.544C173.116 62.2987 173.276 61.9893 173.276 61.616C173.276 61.232 173.105 60.9493 172.764 60.768C172.423 60.576 171.895 60.3893 171.18 60.208C170.529 60.0373 169.996 59.8667 169.58 59.696C169.175 59.5147 168.823 59.2533 168.524 58.912C168.236 58.56 168.092 58.1013 168.092 57.536C168.092 57.088 168.225 56.6773 168.492 56.304C168.759 55.9307 169.137 55.6373 169.628 55.424C170.119 55.2 170.679 55.088 171.308 55.088C172.279 55.088 173.063 55.3333 173.66 55.824C174.257 56.3147 174.577 56.9867 174.62 57.84H173.164C173.132 57.3813 172.945 57.0133 172.604 56.736C172.273 56.4587 171.825 56.32 171.26 56.32C170.737 56.32 170.321 56.432 170.012 56.656C169.703 56.88 169.548 57.1733 169.548 57.536C169.548 57.824 169.639 58.064 169.82 58.256C170.012 58.4373 170.247 58.5867 170.524 58.704C170.812 58.8107 171.207 58.9333 171.708 59.072C172.337 59.2427 172.849 59.4133 173.244 59.584C173.639 59.744 173.975 59.9893 174.252 60.32C174.54 60.6507 174.689 61.0827 174.7 61.616C174.7 62.096 174.567 62.528 174.3 62.912C174.033 63.296 173.655 63.6 173.164 63.824C172.684 64.0373 172.129 64.144 171.5 64.144ZM188.573 55.232L183.293 68.128H181.789L183.517 63.904L179.981 55.232H181.597L184.349 62.336L187.069 55.232H188.573ZM193.861 64.144C193.039 64.144 192.293 63.9573 191.621 63.584C190.959 63.2107 190.437 62.6827 190.053 62C189.679 61.3067 189.493 60.5067 189.493 59.6C189.493 58.704 189.685 57.9147 190.069 57.232C190.463 56.5387 190.997 56.0107 191.669 55.648C192.341 55.2747 193.093 55.088 193.925 55.088C194.757 55.088 195.509 55.2747 196.181 55.648C196.853 56.0107 197.381 56.5333 197.765 57.216C198.159 57.8987 198.357 58.6933 198.357 59.6C198.357 60.5067 198.154 61.3067 197.749 62C197.354 62.6827 196.815 63.2107 196.133 63.584C195.45 63.9573 194.693 64.144 193.861 64.144ZM193.861 62.864C194.383 62.864 194.874 62.7413 195.333 62.496C195.791 62.2507 196.159 61.8827 196.437 61.392C196.725 60.9013 196.869 60.304 196.869 59.6C196.869 58.896 196.73 58.2987 196.453 57.808C196.175 57.3173 195.813 56.9547 195.365 56.72C194.917 56.4747 194.431 56.352 193.909 56.352C193.375 56.352 192.885 56.4747 192.437 56.72C191.999 56.9547 191.647 57.3173 191.381 57.808C191.114 58.2987 190.981 58.896 190.981 59.6C190.981 60.3147 191.109 60.9173 191.365 61.408C191.631 61.8987 191.983 62.2667 192.421 62.512C192.858 62.7467 193.338 62.864 193.861 62.864ZM208.047 55.232V64H206.591V62.704C206.314 63.152 205.924 63.504 205.423 63.76C204.932 64.0053 204.388 64.128 203.791 64.128C203.108 64.128 202.495 63.9893 201.951 63.712C201.407 63.424 200.975 62.9973 200.655 62.432C200.346 61.8667 200.191 61.1787 200.191 60.368V55.232H201.631V60.176C201.631 61.04 201.85 61.7067 202.287 62.176C202.724 62.6347 203.322 62.864 204.079 62.864C204.858 62.864 205.471 62.624 205.919 62.144C206.367 61.664 206.591 60.9653 206.591 60.048V55.232H208.047ZM211.961 56.656C212.217 56.1547 212.58 55.7653 213.049 55.488C213.529 55.2107 214.111 55.072 214.793 55.072V56.576H214.409C212.777 56.576 211.961 57.4613 211.961 59.232V64H210.505V55.232H211.961V56.656ZM223.844 64.144C223.172 64.144 222.569 64.032 222.036 63.808C221.502 63.5733 221.081 63.2533 220.772 62.848C220.462 62.432 220.292 61.9573 220.26 61.424H221.764C221.806 61.8613 222.009 62.2187 222.372 62.496C222.745 62.7733 223.23 62.912 223.828 62.912C224.382 62.912 224.82 62.7893 225.14 62.544C225.46 62.2987 225.62 61.9893 225.62 61.616C225.62 61.232 225.449 60.9493 225.108 60.768C224.766 60.576 224.238 60.3893 223.524 60.208C222.873 60.0373 222.34 59.8667 221.924 59.696C221.518 59.5147 221.166 59.2533 220.868 58.912C220.58 58.56 220.436 58.1013 220.436 57.536C220.436 57.088 220.569 56.6773 220.836 56.304C221.102 55.9307 221.481 55.6373 221.972 55.424C222.462 55.2 223.022 55.088 223.652 55.088C224.622 55.088 225.406 55.3333 226.004 55.824C226.601 56.3147 226.921 56.9867 226.964 57.84H225.508C225.476 57.3813 225.289 57.0133 224.948 56.736C224.617 56.4587 224.169 56.32 223.604 56.32C223.081 56.32 222.665 56.432 222.356 56.656C222.046 56.88 221.892 57.1733 221.892 57.536C221.892 57.824 221.982 58.064 222.164 58.256C222.356 58.4373 222.59 58.5867 222.868 58.704C223.156 58.8107 223.55 58.9333 224.052 59.072C224.681 59.2427 225.193 59.4133 225.588 59.584C225.982 59.744 226.318 59.9893 226.596 60.32C226.884 60.6507 227.033 61.0827 227.044 61.616C227.044 62.096 226.91 62.528 226.644 62.912C226.377 63.296 225.998 63.6 225.508 63.824C225.028 64.0373 224.473 64.144 223.844 64.144ZM233.995 64L230.555 60.128V64H229.099V52.16H230.555V59.12L233.931 55.232H235.963L231.835 59.6L235.979 64H233.995ZM238.086 53.808C237.808 53.808 237.574 53.712 237.382 53.52C237.19 53.328 237.094 53.0933 237.094 52.816C237.094 52.5387 237.19 52.304 237.382 52.112C237.574 51.92 237.808 51.824 238.086 51.824C238.352 51.824 238.576 51.92 238.758 52.112C238.95 52.304 239.046 52.5387 239.046 52.816C239.046 53.0933 238.95 53.328 238.758 53.52C238.576 53.712 238.352 53.808 238.086 53.808ZM238.79 55.232V64H237.334V55.232H238.79ZM245.543 55.072C246.61 55.072 247.474 55.3973 248.135 56.048C248.796 56.688 249.127 57.616 249.127 58.832V64H247.687V59.04C247.687 58.1653 247.468 57.4987 247.031 57.04C246.594 56.5707 245.996 56.336 245.239 56.336C244.471 56.336 243.858 56.576 243.399 57.056C242.951 57.536 242.727 58.2347 242.727 59.152V64H241.271V55.232H242.727V56.48C243.015 56.032 243.404 55.6853 243.895 55.44C244.396 55.1947 244.946 55.072 245.543 55.072Z" fill="#2D2D2D" fill-opacity="0.69"/>
<defs>
<clipPath id="clip0_882_5969">
<rect width="212" height="36" fill="white" transform="translate(22)"/>
</clipPath>
</defs>
</svg>
